mtllib model_6.mtl
o model_6
v -40.00630187988281 0 40.74050521850586 
v 0.30864399671554565 0 40.74050521850586 
v -40.00630187988281 0 0.31442588567733765 
v 0.30864399671554565 0 0.31442588567733765 
v -40.00630187988281 0 -40.75333786010742 
v 0.30864399671554565 0 -40.75333786010742 
v 39.99366760253906 0 0.31442588567733765 
v 39.99366760253906 0 -40.75333786010742 
v 39.99366760253906 0 40.74050521850586 
vn -1.0341130485562108e-13 0.999997615814209 0.0026808101683855057 
vn -1.0341130485562108e-13 0.999997615814209 0.0026808101683855057 
vn -1.0341130485562108e-13 0.999997615814209 0.0026808101683855057 
vn -1.0341130485562108e-13 0.999997615814209 0.0026808101683855057 
vn -1.0341130485562108e-13 0.999997615814209 0.0026808101683855057 
vn -1.0341130485562108e-13 0.999997615814209 0.0026808101683855057 
vn -1.0341130485562108e-13 0.999997615814209 0.0026808101683855057 
vn -1.0341130485562108e-13 0.999997615814209 0.0026808101683855057 
vn -1.0341130485562108e-13 0.999997615814209 0.0026808101683855057 
vt 0.01171880029141903 0.7948349714279175 
vt 0.01171880029141903 0.6018085479736328 
vt 0.25300151109695435 0.7948349714279175 
vt 0.25300151109695435 0.6018085479736328 
vt 0.4943431615829468 0.7948349714279175 
vt 0.4943431615829468 0.6018085479736328 
vt 0.25300151109695435 0.4087350070476532 
vt 0.4943431615829468 0.4087350070476532 
vt 0.01171880029141903 0.4087350070476532 
s on 
f 1/1/1 2/2/2 3/3/3 
f 2/2/2 4/4/4 3/3/3 
f 3/3/3 4/4/4 5/5/5 
f 4/4/4 4/4/4 5/5/5 
f 5/5/5 4/4/4 6/6/6 
f 4/4/4 7/7/7 6/6/6 
f 6/6/6 7/7/7 8/8/8 
f 7/7/7 8/8/8 8/8/8 
f 8/8/8 8/8/8 2/2/2 
f 8/8/8 2/2/2 2/2/2 
f 2/2/2 2/2/2 4/4/4 
f 2/2/2 9/9/9 4/4/4 
f 4/4/4 9/9/9 7/7/7 

